<svg width="200" height="80" viewBox="0 0 200 80" fill="none" xmlns="http://www.w3.org/2000/svg">
<g clip-path="url(#clip0_3_36)">
<path d="M200 0H0V80H200V0Z" fill="#222A37"/>
<path d="M0 50.0741L4.75 53.2148C9.52083 56.3408 19.0208 62.6222 28.5417 63.1556C38.0625 63.7037 47.5625 58.5185 57.0833 56.2222C66.6042 53.9259 76.1042 54.5185 85.6667 57.2148C95.2083 59.8963 104.792 64.6963 114.333 65.0074C123.896 65.3334 133.396 61.1852 142.917 58.1185C152.437 55.0667 161.937 53.0815 171.458 55.0815C180.979 57.0815 190.479 63.0667 195.25 66.0445L200 69.0371V80.1482H195.25C190.479 80.1482 180.979 80.1482 171.458 80.1482C161.937 80.1482 152.437 80.1482 142.917 80.1482C133.396 80.1482 123.896 80.1482 114.333 80.1482C104.792 80.1482 95.2083 80.1482 85.6667 80.1482C76.1042 80.1482 66.6042 80.1482 57.0833 80.1482C47.5625 80.1482 38.0625 80.1482 28.5417 80.1482C19.0208 80.1482 9.52083 80.1482 4.75 80.1482H0V50.0741Z" fill="#F6E979"/>
<path d="M49.1182 50H28.2382C27.6682 50 27.2482 49.88 26.9782 49.64C26.7382 49.37 26.6182 48.95 26.6182 48.38V19.22C26.6182 18.65 26.7382 18.245 26.9782 18.005C27.2482 17.735 27.6682 17.6 28.2382 17.6H49.1182C49.6882 17.6 50.0932 17.735 50.3332 18.005C50.6032 18.245 50.7382 18.65 50.7382 19.22V24.485C50.7382 25.055 50.6032 25.475 50.3332 25.745C50.0932 25.985 49.6882 26.105 49.1182 26.105H36.6982V29.57H45.4732C46.0432 29.57 46.4482 29.705 46.6882 29.975C46.9582 30.215 47.0932 30.62 47.0932 31.19V36.005C47.0932 36.575 46.9582 36.995 46.6882 37.265C46.4482 37.505 46.0432 37.625 45.4732 37.625H36.6982V41.495H49.1182C49.6882 41.495 50.0932 41.63 50.3332 41.9C50.6032 42.14 50.7382 42.545 50.7382 43.115V48.38C50.7382 48.95 50.6032 49.37 50.3332 49.64C50.0932 49.88 49.6882 50 49.1182 50ZM83.283 50H76.578C76.008 50 75.588 49.88 75.318 49.64C75.078 49.37 74.958 48.95 74.958 48.38V19.22C74.958 18.65 75.078 18.245 75.318 18.005C75.588 17.735 76.008 17.6 76.578 17.6H83.823C84.303 17.6 84.693 17.705 84.993 17.915C85.323 18.125 85.623 18.47 85.893 18.95L89.943 26.285C90.093 26.555 90.213 26.75 90.303 26.87C90.423 26.99 90.573 27.05 90.753 27.05H91.158C91.338 27.05 91.473 26.99 91.563 26.87C91.683 26.75 91.818 26.555 91.968 26.285L95.973 18.95C96.243 18.47 96.528 18.125 96.828 17.915C97.158 17.705 97.563 17.6 98.043 17.6H105.333C105.903 17.6 106.308 17.735 106.548 18.005C106.818 18.245 106.953 18.65 106.953 19.22V48.38C106.953 48.95 106.818 49.37 106.548 49.64C106.308 49.88 105.903 50 105.333 50H98.403C97.833 50 97.413 49.88 97.143 49.64C96.903 49.37 96.783 48.95 96.783 48.38V32.54L94.128 37.445C93.858 37.955 93.528 38.33 93.138 38.57C92.778 38.78 92.313 38.885 91.743 38.885H89.943C89.373 38.885 88.893 38.78 88.503 38.57C88.143 38.33 87.828 37.955 87.558 37.445L84.903 32.54V48.38C84.903 48.95 84.768 49.37 84.498 49.64C84.258 49.88 83.853 50 83.283 50ZM124.892 27.05L122.777 33.89H129.842L127.727 27.05C127.607 26.78 127.472 26.585 127.322 26.465C127.202 26.345 127.052 26.285 126.872 26.285H125.747C125.567 26.285 125.402 26.345 125.252 26.465C125.132 26.585 125.012 26.78 124.892 27.05ZM122.327 48.38C122.327 48.95 122.192 49.37 121.922 49.64C121.682 49.88 121.277 50 120.707 50H114.092C113.522 50 113.102 49.88 112.832 49.64C112.592 49.37 112.472 48.95 112.472 48.38V36.5C112.472 35.6 112.607 34.565 112.877 33.395C113.177 32.225 113.627 30.86 114.227 29.3L118.142 19.085C118.322 18.575 118.592 18.2 118.952 17.96C119.342 17.72 119.837 17.6 120.437 17.6H132.542C133.112 17.6 133.577 17.72 133.937 17.96C134.327 18.2 134.612 18.575 134.792 19.085L138.707 29.3C139.307 30.86 139.742 32.225 140.012 33.395C140.312 34.565 140.462 35.6 140.462 36.5V48.38C140.462 48.95 140.327 49.37 140.057 49.64C139.817 49.88 139.412 50 138.842 50H132.047C131.447 50 130.997 49.88 130.697 49.64C130.427 49.37 130.292 48.95 130.292 48.38V42.08H122.327V48.38ZM162.803 50H147.638C147.068 50 146.648 49.88 146.378 49.64C146.138 49.37 146.018 48.95 146.018 48.38V19.22C146.018 18.65 146.138 18.245 146.378 18.005C146.648 17.735 147.068 17.6 147.638 17.6H162.803C166.553 17.6 169.328 18.35 171.128 19.85C172.958 21.35 173.873 23.66 173.873 26.78V40.82C173.873 43.94 172.958 46.25 171.128 47.75C169.328 49.25 166.553 50 162.803 50ZM156.233 26.195V41.495H161.588C162.308 41.495 162.833 41.315 163.163 40.955C163.523 40.595 163.703 40.04 163.703 39.29V28.355C163.703 27.605 163.523 27.065 163.163 26.735C162.833 26.375 162.308 26.195 161.588 26.195H156.233Z" fill="#F5F5F5"/>
<path d="M56.3765 38.435C55.8065 38.435 55.3865 38.315 55.1165 38.075C54.8765 37.805 54.7565 37.385 54.7565 36.815V30.785C54.7565 30.215 54.8765 29.81 55.1165 29.57C55.3865 29.3 55.8065 29.165 56.3765 29.165H68.4365C69.0065 29.165 69.4115 29.3 69.6515 29.57C69.9215 29.81 70.0565 30.215 70.0565 30.785V36.815C70.0565 37.385 69.9215 37.805 69.6515 38.075C69.4115 38.315 69.0065 38.435 68.4365 38.435H56.3765Z" fill="#F6E979"/>
</g>
<defs>
<clipPath id="clip0_3_36">
<rect width="200" height="80" fill="white"/>
</clipPath>
</defs>
</svg>
