<svg width="350" height="300" viewBox="0 0 350 300" fill="none" xmlns="http://www.w3.org/2000/svg">
<g clip-path="url(#clip0_3_22)">
<rect width="350" height="300" fill="white"/>
<rect width="300" height="62" transform="matrix(-1 0 0 1 327 226)" fill="#222A37"/>
<rect width="300" height="62" transform="matrix(-1 0 0 1 327 20.8521)" fill="#222A37"/>
<path d="M299 88.8521H49V150.852H299V88.8521Z" fill="#222A37"/>
<path d="M603.5 66H353.5V128H603.5V66Z" fill="#222A37"/>
<path d="M299 157.852H49V219.852H299V157.852Z" fill="#222A37"/>
<path d="M234.547 213.243C268.717 179.072 268.717 123.67 234.547 89.4995V89.4995C200.376 55.3286 144.974 55.3286 110.803 89.4995V89.4995C76.632 123.67 76.632 179.072 110.803 213.243V213.243C144.974 247.414 200.376 247.414 234.547 213.243V213.243Z" fill="#FDFFFC"/>
<path d="M117 152.852C117 122.476 141.624 97.8521 172 97.8521V97.8521C202.376 97.8521 227 122.476 227 152.852V152.852C227 183.228 202.376 207.852 172 207.852V207.852C141.624 207.852 117 183.228 117 152.852V152.852Z" fill="#222A37"/>
<path d="M102 154C102 115.34 133.34 84 172 84V84C210.66 84 242 115.34 242 154V154C242 192.66 210.66 224 172 224V224C133.34 224 102 192.66 102 154V154Z" fill="#222A37"/>
<path d="M127 153C127 128.147 147.147 108 172 108V108C196.853 108 217 128.147 217 153V153C217 177.853 196.853 198 172 198V198C147.147 198 127 177.853 127 153V153Z" fill="#FDFFFC"/>
<path d="M176.055 116.167C170.539 115.645 164.976 116.349 159.764 118.23C154.552 120.111 149.821 123.121 145.91 127.046C140.67 132.32 137.114 139.031 135.693 146.328C134.271 153.626 135.048 161.181 137.926 168.036C140.813 174.887 145.669 180.727 151.879 184.815C158.089 188.903 165.373 191.055 172.808 190.999C173.753 191.009 174.691 190.832 175.567 190.475C176.442 190.119 177.238 189.592 177.907 188.925C178.577 188.257 179.106 187.463 179.465 186.589C179.824 185.714 180.005 184.777 179.997 183.832C179.989 182.887 179.793 181.953 179.42 181.084C179.047 180.216 178.505 179.431 177.825 178.774C177.144 178.118 176.34 177.604 175.459 177.262C174.578 176.92 173.637 176.757 172.692 176.783C168.074 176.828 163.546 175.496 159.688 172.957C155.829 170.418 152.815 166.787 151.029 162.527C149.233 158.272 148.746 153.578 149.629 149.044C150.513 144.511 152.727 140.344 155.989 137.074C158.809 134.229 162.317 132.162 166.172 131.073C170.027 129.984 174.098 129.909 177.991 130.857C181.883 131.805 185.464 133.742 188.387 136.482C191.309 139.221 193.474 142.67 194.671 146.493H172.655C170.769 146.493 168.961 147.242 167.628 148.575C166.294 149.908 165.545 151.716 165.545 153.602C165.545 155.487 166.294 157.296 167.628 158.629C168.961 159.962 170.769 160.711 172.655 160.711H202.887C204.769 160.712 206.574 159.967 207.908 158.639C209.241 157.311 209.993 155.509 210 153.627C210.02 146.192 207.832 138.919 203.713 132.729C199.594 126.539 193.73 121.712 186.865 118.858C183.416 117.427 179.772 116.522 176.055 116.171V116.167Z" fill="#222A37"/>
</g>
<defs>
<clipPath id="clip0_3_22">
<rect width="350" height="300" fill="white"/>
</clipPath>
</defs>
</svg>
