<svg width="350" height="350" viewBox="0 0 350 350" fill="none" xmlns="http://www.w3.org/2000/svg">
<rect width="350" height="350" fill="white"/>
<rect width="245" height="62" transform="matrix(-1 0 0 1 297 43.8521)" fill="#222A37"/>
<rect width="245" height="62" transform="matrix(-1 0 0 1 297 247.852)" fill="#222A37"/>
<path d="M196.53 325C224.144 325 246.53 302.614 246.53 275V75C246.53 47.3857 224.144 25 196.53 25H184.53V325H196.53Z" fill="#222A37"/>
<path d="M298 111.852H98V173.852H298V111.852Z" fill="#222A37"/>
<path d="M298 180.852H98V242.852H298V180.852Z" fill="#222A37"/>
<path d="M224.385 227.404C253.675 198.115 253.675 150.628 224.385 121.338V121.338C195.096 92.049 147.609 92.049 118.319 121.338V121.338C89.0301 150.628 89.0301 198.115 118.319 227.404V227.404C147.609 256.694 195.096 256.694 224.385 227.404V227.404Z" fill="#FDFFFC"/>
<path d="M141 136.852H207V201.852H141V136.852Z" fill="#222A37"/>
<path d="M186.021 189.852H165.465V154.159H186.021V160.36H173.033V168.197H185.118V174.398H173.033V183.602H186.021V189.852Z" fill="#F6E97A"/>
</svg>
