<svg width="400" height="400" viewBox="0 0 400 400" fill="none" xmlns="http://www.w3.org/2000/svg">
<g clip-path="url(#clip0_1_18)">
<rect width="400" height="400" rx="200" fill="#222A37"/>
<path d="M80 143C80 108.206 108.206 80 143 80H300C355.228 80 400 124.772 400 180V260C400 333.454 340.454 393 267 393H180C124.772 393 80 348.228 80 293V143Z" fill="#FDFFFC"/>
<path d="M74 136C74 80.7715 118.772 36 174 36H249C304.228 36 349 80.7715 349 136V214C349 269.228 304.228 314 249 314H174C118.772 314 74 269.228 74 214V136Z" fill="#222A37"/>
<path d="M100 268C100 185.157 167.157 118 250 118V118C332.843 118 400 185.157 400 268V268C400 350.843 332.843 418 250 418V418C167.157 418 100 350.843 100 268V268Z" fill="#FDFFFC"/>
<path d="M261.85 143.563C261.85 143.56 261.848 143.558 261.845 143.558C243.46 141.816 224.918 144.165 207.548 150.433C190.175 156.702 174.405 166.737 161.368 179.818C143.901 197.399 132.047 219.77 127.308 244.095C122.571 268.419 125.161 293.603 134.753 316.454C144.377 339.291 160.565 358.756 181.265 372.383C201.965 386.01 226.245 393.184 251.027 392.996C254.178 393.031 257.304 392.438 260.222 391.251C263.14 390.064 265.793 388.306 268.024 386.082C270.255 383.858 272.021 381.211 273.217 378.296C274.413 375.381 275.016 372.257 274.99 369.107C274.964 365.956 274.311 362.842 273.068 359.948C271.824 357.053 270.016 354.435 267.749 352.247C265.482 350.059 262.801 348.346 259.864 347.206C256.926 346.066 253.791 345.524 250.642 345.611C235.246 345.761 220.154 341.32 207.293 332.856C194.432 324.392 184.383 312.289 178.431 298.09C172.445 283.906 170.821 268.259 173.765 253.148C176.709 238.037 184.089 224.145 194.963 213.246C204.365 203.764 216.058 196.874 228.908 193.243C241.758 189.612 255.328 189.364 268.302 192.523C281.276 195.682 293.213 202.141 302.955 211.273C309.373 217.288 314.694 224.329 318.719 232.076C321.831 238.065 317.043 244.642 310.294 244.642H250.517C244.231 244.642 238.204 247.138 233.759 251.582C229.314 256.027 226.818 262.055 226.818 268.34C226.818 274.625 229.314 280.652 233.759 285.096C238.204 289.541 244.231 292.037 250.517 292.037H351.291C357.564 292.041 363.581 289.556 368.025 285.13C372.47 280.703 374.978 274.696 375 268.423C375.066 243.64 367.772 219.396 354.044 198.763C340.315 178.131 320.769 162.038 297.883 152.527C286.388 147.759 274.244 144.739 261.855 143.569C261.852 143.569 261.85 143.566 261.85 143.563V143.563Z" fill="#222A37"/>
</g>
<defs>
<clipPath id="clip0_1_18">
<rect width="400" height="400" rx="200" fill="white"/>
</clipPath>
</defs>
</svg>
