<svg width="350" height="350" viewBox="0 0 350 350" fill="none" xmlns="http://www.w3.org/2000/svg">
<rect width="350" height="350" fill="#FDFFFC"/>
<path d="M65.8542 272.973L277.986 60.8406L269.501 52.3553C249.975 32.8291 218.317 32.8291 198.79 52.3553L57.369 193.777C37.8428 213.303 37.8428 244.961 57.369 264.487L65.8542 272.973Z" fill="#222A37"/>
<path d="M87.0285 296.765C106.555 316.291 138.213 316.291 157.739 296.765L299.16 155.344C318.687 135.818 318.687 104.159 299.16 84.6332L290.675 76.148L78.5432 288.28L87.0285 296.765Z" fill="#222A37"/>
<path d="M37.9203 97.9066C25.8141 110.013 25.8141 129.641 37.9203 141.747L206.212 310.039C218.318 322.145 237.946 322.145 250.052 310.039V310.039C262.159 297.932 262.159 278.304 250.052 266.198L81.7609 97.9066C69.6547 85.8003 50.0266 85.8003 37.9203 97.9066V97.9066Z" fill="#222A37"/>
<path d="M92.9203 43.9066C80.8141 56.0128 80.8141 75.641 92.9203 87.7472L261.212 256.039C273.318 268.145 292.946 268.145 305.052 256.039V256.039C317.159 243.932 317.159 224.304 305.052 212.198L136.761 43.9066C124.655 31.8003 105.027 31.8003 92.9203 43.9066V43.9066Z" fill="#222A37"/>
<path d="M240.777 213.408C260.303 193.881 260.303 162.223 240.777 142.697L205.421 107.342C185.895 87.8155 154.237 87.8155 134.711 107.342L99.3554 142.697C79.8292 162.223 79.8292 193.881 99.3554 213.408L134.711 248.763C154.237 268.289 185.895 268.289 205.421 248.763L240.777 213.408Z" fill="#FDFFFC"/>
<path d="M123 157.986C123 141.418 136.431 127.986 153 127.986H193C209.569 127.986 223 141.418 223 157.986V197.986C223 214.555 209.569 227.986 193 227.986H153C136.431 227.986 123 214.555 123 197.986V157.986Z" fill="#222A37"/>
<rect x="64" y="67.9863" width="15" height="15" rx="5" fill="#F6E97A"/>
<rect x="281.822" y="181.486" width="25" height="25" rx="5" transform="rotate(-45 281.822 181.486)" fill="#222A37"/>
<rect x="158" y="304.664" width="25" height="25" rx="5" transform="rotate(-45 158 304.664)" fill="#222A37"/>
<rect x="155" y="54.6639" width="25" height="25" rx="5" transform="rotate(-45 155 54.6639)" fill="#222A37"/>
<rect x="31" y="177.664" width="25" height="25" rx="5" transform="rotate(-45 31 177.664)" fill="#222A37"/>
<rect x="264" y="272.986" width="15" height="15" rx="5" fill="#F6E97A"/>
<rect x="269" y="67.9863" width="15" height="15" rx="5" fill="#F6E97A"/>
<rect x="70" y="267.986" width="15" height="15" rx="5" fill="#F6E97A"/>
<rect x="70" y="267.986" width="15" height="15" rx="5" fill="#F6E97A"/>
<path d="M176.844 148.12C172.431 147.702 167.981 148.266 163.811 149.77C159.642 151.275 155.857 153.683 152.728 156.823C148.536 161.042 145.691 166.411 144.554 172.249C143.417 178.087 144.039 184.131 146.341 189.615C148.65 195.096 152.536 199.768 157.504 203.038C162.472 206.309 168.299 208.031 174.246 207.985C175.003 207.994 175.753 207.852 176.453 207.567C177.154 207.282 177.79 206.86 178.326 206.326C178.861 205.792 179.285 205.157 179.572 204.457C179.859 203.758 180.004 203.008 179.998 202.252C179.991 201.496 179.835 200.749 179.536 200.054C179.238 199.359 178.804 198.731 178.26 198.206C177.716 197.681 177.072 197.269 176.367 196.996C175.662 196.722 174.91 196.592 174.154 196.613C170.459 196.649 166.837 195.583 163.75 193.552C160.664 191.521 158.252 188.616 156.823 185.208C155.387 181.804 154.997 178.049 155.704 174.422C156.41 170.795 158.181 167.461 160.791 164.845C163.048 162.57 165.854 160.916 168.938 160.045C172.022 159.173 175.279 159.114 178.392 159.872C181.506 160.63 184.371 162.18 186.709 164.372C189.047 166.563 190.779 169.322 191.737 172.38H174.124C172.615 172.38 171.169 172.98 170.102 174.046C169.035 175.113 168.436 176.559 168.436 178.068C168.436 179.576 169.035 181.023 170.102 182.09C171.169 183.156 172.615 183.755 174.124 183.755H198.31C199.815 183.756 201.259 183.16 202.326 182.098C203.393 181.035 203.995 179.593 204 178.088C204.016 172.14 202.265 166.321 198.97 161.37C195.675 156.418 190.984 152.556 185.492 150.273C182.733 149.128 179.818 148.404 176.844 148.123V148.12Z" fill="#FDFFFC"/>
</svg>
