<svg width="272" height="70" viewBox="0 0 272 70" fill="none" xmlns="http://www.w3.org/2000/svg">
<g clip-path="url(#clip0_1_2)">
<rect width="272" height="70" fill="#F6E97A"/>
<path d="M0 4H66V69H0V4Z" fill="#222A37"/>
<path d="M69 4H135V69H69V4Z" fill="#222A37"/>
<path d="M207 4H273V69H207V4Z" fill="#222A37"/>
<rect x="138" y="4" width="66" height="65" fill="#222A37"/>
<path d="M43.0215 55H22.4648V19.3066H43.0215V25.5078H30.0332V33.3447H42.1182V39.5459H30.0332V48.75H43.0215V55Z" fill="white"/>
<path d="M98.4365 54L89.8428 25.9971H89.623C89.6556 26.6644 89.7044 27.6735 89.7695 29.0244C89.8509 30.359 89.9242 31.7832 89.9893 33.2969C90.0544 34.8105 90.0869 36.1777 90.0869 37.3984V54H83.3242V18.3066H93.627L102.074 45.6016H102.221L111.181 18.3066H121.483V54H114.428V37.1055C114.428 35.9824 114.444 34.6885 114.477 33.2236C114.525 31.7588 114.582 30.3672 114.647 29.0488C114.713 27.7142 114.761 26.7132 114.794 26.0459H114.574L105.37 54H98.4365Z" fill="white"/>
<path d="M177.821 53L175.233 44.5039H162.221L159.633 53H151.479L164.076 17.1602H173.329L185.976 53H177.821ZM173.427 38.1562L170.839 29.8555C170.676 29.3021 170.456 28.5941 170.18 27.7314C169.919 26.8525 169.651 25.9655 169.374 25.0703C169.114 24.1589 168.902 23.3695 168.739 22.7021C168.576 23.3695 168.349 24.1995 168.056 25.1924C167.779 26.1689 167.51 27.0967 167.25 27.9756C166.99 28.8545 166.802 29.4811 166.688 29.8555L164.125 38.1562H173.427Z" fill="white"/>
<path d="M255.095 34.8115C255.095 38.8317 254.322 42.1927 252.775 44.8945C251.245 47.5801 249.024 49.6064 246.11 50.9736C243.197 52.3245 239.689 53 235.588 53H225.48V17.3066H236.687C240.43 17.3066 243.677 17.974 246.428 19.3086C249.178 20.627 251.311 22.5882 252.824 25.1924C254.338 27.7803 255.095 30.9867 255.095 34.8115ZM247.233 35.0068C247.233 32.3701 246.843 30.2054 246.062 28.5127C245.297 26.8037 244.157 25.5423 242.644 24.7285C241.146 23.9147 239.291 23.5078 237.077 23.5078H233.049V46.75H236.296C239.991 46.75 242.733 45.7653 244.523 43.7959C246.33 41.8265 247.233 38.8968 247.233 35.0068Z" fill="white"/>
</g>
<defs>
<clipPath id="clip0_1_2">
<rect width="272" height="70" fill="white"/>
</clipPath>
</defs>
</svg>
