<svg width="350" height="150" viewBox="0 0 350 150" fill="none" xmlns="http://www.w3.org/2000/svg">
<g clip-path="url(#clip0_3_22)">
<rect width="350" height="150" fill="white"/>
<path d="M299 9.85205H49V71.8521H299V9.85205Z" fill="#222A37"/>
<path d="M603.5 -13H353.5V49H603.5V-13Z" fill="#222A37"/>
<path d="M299 78.8521H49V140.852H299V78.8521Z" fill="#222A37"/>
<path d="M234.547 134.243C268.717 100.072 268.717 44.6704 234.547 10.4995V10.4995C200.376 -23.6714 144.974 -23.6714 110.803 10.4995V10.4995C76.632 44.6704 76.632 100.072 110.803 134.243V134.243C144.974 168.414 200.376 168.414 234.547 134.243V134.243Z" fill="#FDFFFC"/>
<path d="M117 73.8521C117 43.4764 141.624 18.8521 172 18.8521V18.8521C202.376 18.8521 227 43.4764 227 73.8521V73.8521C227 104.228 202.376 128.852 172 128.852V128.852C141.624 128.852 117 104.228 117 73.8521V73.8521Z" fill="#222A37"/>
<path d="M103 75C103 36.3401 134.34 5 173 5V5C211.66 5 243 36.3401 243 75V75C243 113.66 211.66 145 173 145V145C134.34 145 103 113.66 103 75V75Z" fill="#222A37"/>
<path d="M122 75C122 47.3858 144.386 25 172 25V25C199.614 25 222 47.3858 222 75V75C222 102.614 199.614 125 172 125V125C144.386 125 122 102.614 122 75V75Z" fill="#FDFFFC"/>
<path d="M176.055 38.1674C170.539 37.6449 164.976 38.3492 159.764 40.2299C154.552 42.1106 149.821 45.1211 145.91 49.0456C140.67 54.3197 137.114 61.0309 135.693 68.3284C134.271 75.6258 135.048 83.1811 137.926 90.0363C140.813 96.8874 145.669 102.727 151.879 106.815C158.089 110.903 165.373 113.055 172.808 112.999C173.753 113.009 174.691 112.832 175.567 112.475C176.442 112.119 177.238 111.592 177.907 110.925C178.577 110.257 179.106 109.463 179.465 108.589C179.824 107.714 180.005 106.777 179.997 105.832C179.989 104.887 179.793 103.953 179.42 103.084C179.047 102.216 178.505 101.431 177.825 100.774C177.144 100.118 176.34 99.6037 175.459 99.2619C174.578 98.92 173.637 98.7573 172.692 98.7832C168.074 98.8282 163.546 97.4961 159.688 94.9569C155.829 92.4177 152.815 88.7866 151.029 84.5269C149.233 80.2717 148.746 75.5779 149.629 71.0445C150.513 66.511 152.727 62.3436 155.989 59.0737C158.809 56.2293 162.317 54.1622 166.172 53.073C170.027 51.9837 174.098 51.9094 177.991 52.8571C181.883 53.8048 185.464 55.7424 188.387 58.4819C191.309 61.2214 193.474 64.6698 194.671 68.4925H172.655C170.769 68.4925 168.961 69.2415 167.628 70.5748C166.294 71.9081 165.545 73.7164 165.545 75.6019C165.545 77.4874 166.294 79.2957 167.628 80.629C168.961 81.9623 170.769 82.7113 172.655 82.7113H202.887C204.769 82.7122 206.574 81.9669 207.908 80.639C209.241 79.311 209.993 77.5087 210 75.6269C210.02 68.1921 207.832 60.9188 203.713 54.729C199.594 48.5391 193.73 43.7115 186.865 40.858C183.416 39.4274 179.772 38.5215 176.055 38.1705V38.1674Z" fill="#222A37"/>
</g>
<defs>
<clipPath id="clip0_3_22">
<rect width="350" height="150" fill="white"/>
</clipPath>
</defs>
</svg>
