<svg width="500" height="500" viewBox="0 0 500 500" fill="none" xmlns="http://www.w3.org/2000/svg">
<rect width="500" height="500" rx="50" fill="#FDFFFC"/>
<rect width="500" height="500" rx="50" fill="#222A37"/>
<path d="M35 87C35 59.3858 57.3858 37 85 37H450C477.614 37 500 59.3858 500 87V450C500 477.614 477.614 500 450 500H85C57.3858 500 35 477.614 35 450V87Z" fill="#FDFFFC"/>
<path d="M65 113C65 85.3858 87.3858 63 115 63H450C477.614 63 500 85.3858 500 113V450C500 477.614 477.614 500 450 500H115C87.3858 500 65 477.614 65 450V113Z" fill="#222A37"/>
<path d="M100 150C100 122.386 122.386 100 150 100H450C477.614 100 500 122.386 500 150V450C500 477.614 477.614 500 450 500H150C122.386 500 100 477.614 100 450V150Z" fill="#FDFFFC"/>
<path d="M130 180C130 152.386 152.386 130 180 130H450C477.614 130 500 152.386 500 180V450C500 477.614 477.614 500 450 500H180C152.386 500 130 477.614 130 450V180Z" fill="#222A37"/>
<path d="M159 317C159 228.634 230.634 157 319 157V157C407.366 157 479 228.634 479 317V317C479 405.366 407.366 477 319 477V477C230.634 477 159 405.366 159 317V317Z" fill="#FDFFFC"/>
<path d="M334.456 187.606C334.456 187.603 334.454 187.6 334.451 187.6C314.641 185.727 294.661 188.252 275.945 194.991C257.226 201.73 240.234 212.518 226.186 226.58C207.366 245.479 194.593 269.528 189.487 295.677C184.383 321.825 187.173 348.898 197.508 373.463C207.878 398.013 225.321 418.938 247.626 433.587C269.93 448.236 296.092 455.948 322.794 455.746C326.189 455.784 329.557 455.146 332.702 453.869C335.846 452.594 338.704 450.704 341.109 448.313C343.512 445.922 345.415 443.076 346.704 439.944C347.992 436.81 348.642 433.452 348.614 430.065C348.587 426.678 347.883 423.33 346.543 420.219C345.203 417.107 343.255 414.292 340.812 411.941C338.369 409.588 335.481 407.747 332.315 406.521C329.15 405.296 325.772 404.713 322.379 404.806C305.79 404.968 289.529 400.194 275.67 391.096C261.813 381.997 250.986 368.986 244.572 353.722C238.122 338.474 236.372 321.653 239.544 305.409C242.717 289.164 250.669 274.231 262.385 262.514C272.516 252.321 285.116 244.915 298.961 241.012C312.806 237.108 327.428 236.841 341.408 240.238C355.387 243.634 368.249 250.576 378.747 260.394C385.911 267.093 391.808 274.976 396.197 283.661C399.242 289.687 394.451 296.265 387.699 296.265H322.244C315.471 296.265 308.977 298.949 304.188 303.726C299.399 308.504 296.709 314.984 296.709 321.74C296.709 328.497 299.399 334.976 304.188 339.754C308.977 344.531 315.471 347.215 322.244 347.215H430.829C437.587 347.219 444.071 344.548 448.86 339.79C453.648 335.031 456.351 328.573 456.375 321.83C456.446 295.188 448.587 269.125 433.795 246.946C419.001 224.766 397.941 207.466 373.281 197.241C360.896 192.116 347.811 188.87 334.461 187.611C334.458 187.611 334.456 187.609 334.456 187.606V187.606Z" fill="#222A37"/>
</svg>
